<?xml version="1.0" standalone="no"?>
<!DOCTYPE svg PUBLIC "-//W3C//DTD SVG 20010904//EN"
 "http://www.w3.org/TR/2001/REC-SVG-20010904/DTD/svg10.dtd">
<svg version="1.0" xmlns="http://www.w3.org/2000/svg"
 width="439.000000pt" height="443.000000pt" viewBox="0 0 439.000000 443.000000"
 preserveAspectRatio="xMidYMid meet">

<g transform="translate(0.000000,443.000000) scale(0.100000,-0.100000)"
fill="#000000" stroke="none">
<path d="M1074 4369 c-33 -33 -67 -77 -78 -97 -10 -20 -29 -48 -41 -62 -13
-14 -40 -54 -61 -90 -20 -36 -47 -78 -59 -95 -26 -36 -42 -110 -50 -228 -3
-49 -10 -108 -15 -133 -6 -24 -11 -104 -12 -177 -1 -125 1 -141 45 -317 33
-133 60 -217 97 -300 77 -171 137 -329 149 -394 6 -32 21 -72 33 -89 36 -50
46 -74 58 -134 10 -58 73 -195 141 -307 41 -68 52 -103 69 -219 9 -60 23 -100
60 -170 55 -106 87 -208 89 -286 2 -48 0 -53 -16 -45 -28 13 -99 7 -135 -12
-57 -29 -199 -146 -288 -237 -48 -48 -91 -87 -97 -87 -6 0 -30 -12 -53 -27
-41 -27 -42 -28 -16 -31 14 -2 26 -7 26 -12 0 -11 -73 -50 -93 -50 -8 0 -40
-13 -73 -29 -32 -17 -84 -35 -114 -40 -30 -6 -89 -18 -130 -26 -89 -20 -177
-19 -225 1 -35 14 -217 20 -262 8 -22 -6 -23 -10 -23 -139 l0 -133 33 -11 c32
-10 41 -9 145 20 52 14 101 2 147 -35 l30 -24 -20 -38 c-11 -21 -38 -59 -59
-84 -47 -53 -103 -135 -133 -193 l-21 -42 40 -3 c41 -3 78 17 78 43 0 7 9 20
20 30 11 10 20 22 20 27 0 5 16 34 35 64 19 30 35 61 35 68 0 8 3 16 8 18 4 1
28 33 54 69 64 90 99 115 173 123 33 3 79 9 102 12 33 5 45 2 60 -13 11 -11
37 -23 58 -26 21 -3 42 -10 48 -16 15 -15 -2 -49 -48 -92 -25 -23 -42 -45 -39
-50 2 -4 -7 -16 -21 -25 -14 -9 -25 -22 -25 -29 0 -7 -18 -32 -40 -56 -22 -24
-40 -52 -40 -61 0 -10 -9 -22 -20 -28 -12 -6 -20 -21 -20 -35 l0 -25 293 0
294 0 107 104 c116 113 154 134 236 129 25 -1 117 -8 205 -14 265 -19 707 -11
861 16 85 15 260 68 334 103 36 16 114 67 138 89 7 7 17 13 21 13 4 0 32 18
61 40 33 24 85 50 130 65 96 30 251 110 317 163 15 12 56 31 90 42 82 25 252
94 333 134 36 18 81 39 100 46 19 8 46 21 60 31 14 9 61 36 105 60 44 23 86
49 93 58 23 28 9 118 -31 204 -21 43 -37 82 -37 87 0 17 -108 122 -119 116
-12 -8 6 -56 21 -56 4 0 8 -4 8 -10 0 -16 -46 -12 -61 6 -7 9 -13 31 -13 50 0
21 -5 34 -13 34 -7 0 -13 5 -13 11 0 5 5 7 11 3 8 -5 8 -1 0 13 -6 11 -7 23
-4 27 4 4 8 136 9 294 1 239 -1 293 -14 322 -8 19 -14 41 -13 48 1 7 -6 15
-16 19 -16 6 -45 33 -61 58 -9 14 -70 45 -88 45 -8 0 -14 10 -13 23 0 12 -7
49 -15 82 -34 139 -45 239 -39 348 4 80 3 111 -6 117 -7 4 -42 -4 -79 -18 -37
-13 -80 -28 -97 -31 -27 -6 -31 -12 -40 -58 -5 -28 -12 -54 -15 -57 -4 -3 -5
-40 -4 -83 1 -43 0 -72 -3 -65 -9 22 -23 13 -24 -15 0 -16 -3 -22 -6 -15 -10
26 -23 10 -23 -28 0 -38 -2 -40 -30 -40 -17 0 -30 5 -30 12 0 7 -11 0 -25 -15
-14 -15 -31 -27 -37 -27 -10 0 -49 -37 -65 -63 -4 -7 -21 -18 -36 -25 -19 -8
-27 -18 -23 -27 3 -10 -1 -15 -12 -16 -51 -4 -64 -8 -80 -22 -9 -8 -30 -19
-47 -23 -16 -3 -38 -13 -47 -21 -9 -8 -21 -12 -26 -9 -5 3 -43 -4 -83 -15
-151 -42 -197 -50 -322 -55 -77 -3 -141 -11 -162 -20 -19 -7 -54 -14 -77 -14
-48 0 -74 -12 -64 -29 19 -30 -84 -78 -171 -79 l-32 -1 3 58 c1 32 7 64 12 72
4 8 10 23 11 34 2 11 17 47 33 81 17 33 30 66 30 72 0 6 16 26 35 45 19 19 35
39 35 45 0 6 37 29 83 51 45 22 94 50 109 64 15 14 32 27 39 29 25 8 1 56 -33
67 -56 17 -86 10 -210 -46 -62 -28 -91 -35 -145 -36 -38 0 -68 4 -70 9 -7 21
99 105 189 151 l93 46 153 2 c128 2 156 5 170 19 42 42 -31 72 -197 81 -89 5
-131 3 -181 -9 -36 -9 -83 -16 -105 -16 -55 -1 -155 -48 -192 -90 -28 -32 -73
-118 -101 -195 -7 -18 -9 -49 -4 -79 6 -44 10 -49 42 -60 34 -11 35 -12 35
-66 l0 -55 -130 -8 c-132 -7 -133 -7 -205 32 -28 15 -74 39 -130 67 -30 15
-67 40 -82 55 -14 15 -36 30 -47 34 -12 3 -41 21 -64 39 -23 18 -48 31 -55 28
-6 -2 -15 3 -18 11 -3 9 -22 34 -43 56 -37 40 -61 52 -61 30 0 -5 -5 -7 -10
-4 -6 4 -8 15 -5 25 3 10 1 21 -5 25 -12 7 -12 190 -1 310 4 44 5 86 1 93 -10
20 0 68 11 50 13 -20 12 18 -1 42 -8 16 -7 18 4 14 10 -4 16 8 21 47 4 31 24
83 46 124 21 40 36 74 34 77 -9 8 26 82 49 105 23 23 109 66 136 68 8 1 22 4
30 8 8 4 35 9 60 11 25 2 48 4 53 5 13 2 7 38 -8 51 -8 7 -25 10 -39 6 -13 -3
-36 1 -52 9 -16 8 -39 15 -50 15 -12 0 -27 7 -34 15 -7 8 -34 15 -71 17 l-59
3 24 50 c18 38 50 73 137 150 63 55 116 102 119 106 5 6 103 76 135 97 11 7
49 26 84 42 65 31 95 33 194 15 31 -6 39 -12 44 -36 3 -16 9 -29 14 -29 5 0 4
-9 -3 -20 -27 -43 35 -63 135 -45 39 8 44 14 25 33 -9 9 -4 13 21 18 31 7 31
22 0 28 -8 2 -27 8 -42 14 -16 7 -32 12 -37 12 -4 0 -15 15 -25 33 -9 17 -23
46 -32 62 -29 54 -33 64 -33 85 0 20 -6 20 -474 20 l-474 0 -58 -61z m2476
-2005 c0 -8 -10 -14 -25 -14 -38 0 -34 24 5 27 11 1 20 -4 20 -13z m-10 -84
c0 -5 9 -10 20 -10 28 0 78 -73 86 -126 3 -24 14 -49 23 -55 11 -7 12 -12 4
-15 -9 -4 -9 -10 -2 -23 9 -13 5 -27 -20 -66 -17 -27 -31 -59 -31 -72 0 -16
-8 -27 -27 -34 -16 -6 -49 -22 -74 -35 -25 -13 -49 -21 -53 -17 -7 7 -57 -16
-68 -32 -4 -5 0 -13 10 -17 11 -4 6 -7 -16 -7 l-33 -1 16 30 c8 16 15 33 14
36 0 4 5 10 11 14 9 5 9 13 2 25 -10 18 -5 55 7 55 4 0 8 44 9 98 2 53 7 99
13 100 5 2 9 16 9 32 0 16 4 30 8 32 18 7 52 67 46 82 -5 12 0 16 20 16 14 0
26 -4 26 -10z m-100 -20 c0 -5 -4 -10 -10 -10 -5 0 -10 5 -10 10 0 6 5 10 10
10 6 0 10 -4 10 -10z m483 -705 c29 -13 67 -40 86 -59 27 -28 31 -37 22 -54
-8 -15 -21 -20 -57 -20 -25 -1 -52 -6 -59 -12 -7 -6 -20 -8 -29 -4 -9 3 -22 1
-29 -4 -7 -6 -22 -11 -32 -10 -23 1 -110 -36 -119 -50 -3 -5 -16 -7 -30 -5
-18 4 -27 -1 -36 -17 -8 -15 -15 -19 -24 -11 -14 12 -36 -4 -36 -26 0 -7 -12
-13 -27 -13 -16 0 -48 -14 -72 -30 -24 -17 -51 -30 -60 -30 -25 1 -52 26 -46
42 18 46 334 297 374 298 9 0 25 7 35 15 29 22 80 18 139 -10z m-1560 -325
c37 -13 67 -26 67 -31 0 -4 15 -11 34 -14 33 -7 63 -44 48 -60 -15 -15 -38
-104 -31 -118 13 -23 68 -42 82 -28 16 16 52 14 67 -4 10 -12 24 -14 54 -10
36 6 44 3 65 -19 17 -18 31 -24 44 -20 10 3 39 -2 63 -11 37 -14 44 -22 50
-51 7 -37 32 -46 55 -18 15 18 69 48 75 41 3 -2 9 -18 13 -35 7 -23 6 -34 -5
-43 -8 -6 -14 -21 -14 -33 -1 -22 -56 -88 -90 -106 -11 -6 -20 -21 -20 -35 0
-28 -17 -42 -33 -26 -18 18 -55 13 -62 -9 -8 -24 -15 -25 -41 -5 -25 19 -53
19 -60 0 -8 -19 -30 -19 -38 0 -6 17 -76 21 -76 5 0 -5 -9 -10 -20 -10 -11 0
-20 6 -20 14 0 27 -67 37 -76 11 -8 -21 -28 -19 -49 5 -22 24 -42 25 -67 3
-17 -15 -20 -15 -39 6 -18 19 -28 22 -63 17 -35 -6 -46 -3 -61 14 -12 13 -31
20 -54 20 -25 0 -40 6 -49 20 -8 13 -23 20 -45 20 -24 0 -35 6 -42 23 -8 17
-17 21 -42 20 -24 -2 -35 2 -43 18 -9 16 -18 19 -37 14 -16 -4 -29 -1 -37 8
-16 20 -103 49 -125 42 -23 -7 -33 5 -21 24 5 10 45 17 122 22 120 10 179 22
216 45 18 12 22 23 22 62 -1 26 -7 58 -15 72 -17 30 -19 44 -4 34 8 -5 9 8 4
44 -7 50 4 88 29 104 23 15 200 0 269 -22z m162 -40 c3 -5 1 -10 -4 -10 -6 0
-11 5 -11 10 0 6 2 10 4 10 3 0 8 -4 11 -10z m-1214 -243 c19 -13 41 -26 49
-30 37 -18 73 -43 73 -52 0 -6 -13 -16 -28 -24 -23 -11 -38 -11 -77 -2 -55 12
-108 15 -108 4 0 -3 7 -15 17 -25 16 -17 10 -18 -145 -17 -95 0 -162 4 -162
10 0 5 8 9 19 9 10 0 24 7 31 15 7 8 19 15 28 15 21 0 52 30 52 50 0 24 22 40
77 55 77 21 135 18 174 -8z m337 -176 c49 -8 68 -16 92 -39 34 -34 54 -78 40
-87 -5 -3 -7 -12 -3 -20 3 -8 0 -15 -6 -15 -6 0 -11 5 -11 10 0 6 -13 10 -29
10 -16 0 -34 7 -41 15 -7 8 -16 13 -20 10 -5 -3 -11 -1 -15 5 -3 5 -17 10 -30
10 -13 0 -27 5 -30 10 -3 6 -19 10 -35 10 -16 0 -32 5 -36 11 -3 6 -19 9 -34
7 -19 -3 -31 1 -38 13 -6 10 -21 19 -33 21 -12 2 -24 8 -26 15 -7 20 152 28
255 14z"/>
<path d="M1078 873 c7 -3 16 -2 19 1 4 3 -2 6 -13 5 -11 0 -14 -3 -6 -6z"/>
<path d="M2492 4380 c54 -27 123 -68 155 -92 68 -50 127 -82 203 -108 151 -51
192 -74 232 -131 67 -95 127 -187 140 -213 6 -14 15 -26 19 -26 5 0 16 -15 24
-32 9 -18 25 -51 37 -73 11 -22 28 -60 37 -85 9 -25 33 -74 53 -110 20 -36 59
-134 87 -219 28 -84 58 -164 66 -178 26 -39 38 -18 31 58 -5 63 -4 69 13 69
31 0 51 -28 51 -71 0 -47 20 -60 59 -36 35 21 47 107 20 152 -9 17 -19 48 -21
70 -4 48 13 55 73 31 73 -30 75 8 3 50 -36 21 -50 24 -89 19 -70 -11 -55 23
22 50 35 12 38 17 35 47 -1 18 -14 59 -28 91 -14 33 -26 75 -26 95 0 44 -10
64 -57 118 -61 70 -100 121 -123 161 -29 50 -82 109 -246 276 l-136 137 -366
-1 -365 0 97 -49z"/>
<path d="M2495 3906 c-22 -7 -80 -24 -129 -37 -74 -20 -93 -30 -122 -62 -23
-25 -34 -47 -34 -67 0 -38 19 -46 68 -32 20 6 75 14 121 17 83 6 141 26 211
75 14 9 51 27 83 40 73 30 89 47 62 66 -25 18 -204 18 -260 0z"/>
<path d="M1590 3439 c-14 -5 -30 -15 -35 -22 -18 -21 -74 -57 -90 -57 -8 0
-15 -4 -15 -9 0 -5 -15 -14 -32 -21 -18 -7 -47 -19 -65 -26 -17 -8 -35 -14
-40 -13 -26 4 -33 -3 -29 -33 2 -18 -3 -38 -10 -46 -8 -7 -14 -25 -14 -39 0
-18 -4 -24 -15 -19 -8 3 -15 1 -15 -4 0 -6 5 -10 12 -10 6 0 3 -9 -7 -20 -11
-12 -13 -20 -6 -20 7 0 9 -9 5 -25 -13 -51 47 -38 161 34 17 11 38 20 48 20 9
1 17 6 17 11 0 6 7 10 15 10 32 0 182 160 170 181 -3 4 5 11 17 15 30 9 91 71
85 87 -5 15 -122 20 -157 6z"/>
<path d="M2218 3303 c-10 -2 -18 -9 -18 -14 0 -5 -6 -9 -14 -9 -8 0 -27 -12
-43 -27 -29 -27 -33 -28 -136 -26 -63 0 -105 -3 -101 -8 3 -5 -2 -42 -10 -82
-9 -39 -18 -90 -20 -113 -1 -23 -6 -46 -10 -52 -4 -7 -2 -20 4 -31 5 -11 10
-33 10 -50 0 -16 4 -32 9 -36 10 -6 66 38 114 90 15 17 43 46 61 65 36 38 96
126 96 140 0 27 34 40 104 40 58 0 76 4 89 18 23 25 22 27 -19 67 -35 34 -65
42 -116 28z"/>
<path d="M290 740 c-28 -6 -22 -8 36 -9 58 -1 76 -5 104 -26 18 -14 35 -23 38
-21 8 8 -19 46 -33 46 -8 0 -15 5 -15 10 0 11 -77 11 -130 0z"/>
<path d="M520 330 c0 -5 5 -10 10 -10 6 0 10 5 10 10 0 6 -4 10 -10 10 -5 0
-10 -4 -10 -10z"/>
<path d="M468 267 c-9 -17 -28 -57 -43 -87 -14 -30 -33 -63 -43 -73 -9 -10
-21 -38 -28 -63 -9 -38 -9 -44 5 -44 24 1 63 37 61 57 -4 33 0 43 16 43 12 0
15 6 11 21 -7 28 2 49 20 49 12 0 14 7 9 30 -4 23 -1 35 14 47 22 19 27 53 8
53 -7 0 -20 -15 -30 -33z"/>
</g>
</svg>
